<svg width="184" height="58" viewBox="0 0 184 58" fill="none" xmlns="http://www.w3.org/2000/svg">
<rect x="0.706222" y="1.26958" width="182.205" height="55.0853" rx="7.76844" fill="#1C1C1C"/>
<path fill-rule="evenodd" clip-rule="evenodd" d="M36.6057 29.6946C36.6366 27.2985 37.8928 25.0851 39.9342 23.8301C38.6405 21.9824 36.5513 20.853 34.2969 20.7825C31.9251 20.5335 29.6257 22.2017 28.4171 22.2017C27.185 22.2017 25.3241 20.8072 23.3202 20.8484C20.6837 20.9336 18.2852 22.3963 17.0025 24.7014C14.2708 29.4308 16.3084 36.3815 18.9251 40.2045C20.2343 42.0765 21.7644 44.1675 23.7665 44.0934C25.7256 44.0121 26.4573 42.8441 28.8222 42.8441C31.1651 42.8441 31.8516 44.0934 33.8942 44.0462C35.9965 44.0121 37.321 42.1659 38.5843 40.2762C39.5249 38.9423 40.2488 37.4681 40.729 35.9082C38.2321 34.8522 36.6086 32.4056 36.6057 29.6946Z" fill="white"/>
<path fill-rule="evenodd" clip-rule="evenodd" d="M32.7482 18.2684C33.8944 16.8924 34.4591 15.1238 34.3224 13.3381C32.5712 13.5221 30.9536 14.359 29.7919 15.6822C28.6447 16.9878 28.0636 18.6958 28.1764 20.43C29.9511 20.4483 31.6361 19.6516 32.7482 18.2684Z" fill="white"/>
<path d="M58.9058 19.3785V12.3361H60.9398C61.4991 12.3361 61.9694 12.4166 62.3508 12.5776C62.7322 12.7302 63.0415 12.959 63.2788 13.2641C63.5245 13.5607 63.6983 13.9251 63.8 14.3573C63.9101 14.781 63.9652 15.2641 63.9652 15.8065C63.9652 16.3658 63.9059 16.8446 63.7872 17.2429C63.6771 17.6328 63.533 17.959 63.355 18.2218C63.1771 18.4845 62.9737 18.6921 62.7449 18.8446C62.5245 18.9972 62.2999 19.1158 62.0711 19.2006C61.8423 19.2769 61.6262 19.3277 61.4228 19.3531C61.2194 19.3701 61.0499 19.3785 60.9143 19.3785H58.9058ZM57.6982 11.3191V20.3955H60.8126C61.5669 20.3955 62.2194 20.2896 62.7703 20.0777C63.3211 19.8658 63.7745 19.5608 64.1305 19.1624C64.4864 18.7557 64.7491 18.2599 64.9186 17.6751C65.0881 17.0819 65.1729 16.4039 65.1729 15.6412C65.1729 14.1836 64.7957 13.0988 64.0415 12.3869C63.2872 11.6751 62.211 11.3191 60.8126 11.3191H57.6982ZM67.5132 17.1158C67.5132 16.7175 67.564 16.3658 67.6657 16.0607C67.7759 15.7472 67.9242 15.4844 68.1106 15.2726C68.2971 15.0607 68.5132 14.8997 68.7589 14.7895C69.0132 14.6793 69.2801 14.6243 69.5598 14.6243C69.8394 14.6243 70.1022 14.6793 70.3479 14.7895C70.6022 14.8997 70.8225 15.0607 71.009 15.2726C71.1954 15.4844 71.3395 15.7472 71.4412 16.0607C71.5513 16.3658 71.6064 16.7175 71.6064 17.1158C71.6064 17.5141 71.5513 17.8701 71.4412 18.1836C71.3395 18.4887 71.1954 18.7472 71.009 18.9591C70.8225 19.1624 70.6022 19.3192 70.3479 19.4294C70.1022 19.5396 69.8394 19.5947 69.5598 19.5947C69.2801 19.5947 69.0132 19.5396 68.7589 19.4294C68.5132 19.3192 68.2971 19.1624 68.1106 18.9591C67.9242 18.7472 67.7759 18.4887 67.6657 18.1836C67.564 17.8701 67.5132 17.5141 67.5132 17.1158ZM66.3691 17.1158C66.3691 17.5989 66.4369 18.048 66.5725 18.4633C66.7081 18.8785 66.9115 19.243 67.1826 19.5565C67.4538 19.8616 67.7886 20.1031 68.1869 20.2811C68.5852 20.4506 69.0428 20.5353 69.5598 20.5353C70.0852 20.5353 70.5428 20.4506 70.9327 20.2811C71.331 20.1031 71.6657 19.8616 71.9369 19.5565C72.2081 19.243 72.4115 18.8785 72.5471 18.4633C72.6827 18.048 72.7505 17.5989 72.7505 17.1158C72.7505 16.6328 72.6827 16.1836 72.5471 15.7683C72.4115 15.3446 72.2081 14.9802 71.9369 14.6751C71.6657 14.3615 71.331 14.1158 70.9327 13.9378C70.5428 13.7598 70.0852 13.6709 69.5598 13.6709C69.0428 13.6709 68.5852 13.7598 68.1869 13.9378C67.7886 14.1158 67.4538 14.3615 67.1826 14.6751C66.9115 14.9802 66.7081 15.3446 66.5725 15.7683C66.4369 16.1836 66.3691 16.6328 66.3691 17.1158ZM80.7873 20.3955L82.8847 13.8234H81.7661L80.2915 19.2006H80.2661L78.8932 13.8234H77.711L76.3889 19.2006H76.3635L74.8762 13.8234H73.6813L75.7914 20.3955H76.9609L78.283 15.1709H78.3084L79.6432 20.3955H80.7873ZM84.1663 13.8234V20.3955H85.2468V16.6836C85.2468 16.387 85.2849 16.1158 85.3612 15.87C85.4459 15.6158 85.5688 15.3955 85.7298 15.209C85.8909 15.0226 86.09 14.8785 86.3273 14.7768C86.5731 14.6751 86.8612 14.6243 87.1917 14.6243C87.607 14.6243 87.9333 14.7429 88.1705 14.9802C88.4078 15.2175 88.5265 15.5395 88.5265 15.9463V20.3955H89.607V16.0734C89.607 15.7175 89.5689 15.3955 89.4926 15.1073C89.4248 14.8107 89.3019 14.5565 89.1239 14.3446C88.946 14.1327 88.7129 13.9675 88.4248 13.8488C88.1366 13.7302 87.7765 13.6709 87.3443 13.6709C86.3697 13.6709 85.6578 14.0692 85.2086 14.8658H85.1832V13.8234H84.1663ZM91.5477 11.3191V20.3955H92.6282V11.3191H91.5477ZM95.3445 17.1158C95.3445 16.7175 95.3953 16.3658 95.497 16.0607C95.6072 15.7472 95.7555 15.4844 95.9419 15.2726C96.1284 15.0607 96.3445 14.8997 96.5903 14.7895C96.8445 14.6793 97.1114 14.6243 97.3911 14.6243C97.6708 14.6243 97.9335 14.6793 98.1793 14.7895C98.4335 14.8997 98.6538 15.0607 98.8403 15.2726C99.0267 15.4844 99.1708 15.7472 99.2725 16.0607C99.3827 16.3658 99.4377 16.7175 99.4377 17.1158C99.4377 17.5141 99.3827 17.8701 99.2725 18.1836C99.1708 18.4887 99.0267 18.7472 98.8403 18.9591C98.6538 19.1624 98.4335 19.3192 98.1793 19.4294C97.9335 19.5396 97.6708 19.5947 97.3911 19.5947C97.1114 19.5947 96.8445 19.5396 96.5903 19.4294C96.3445 19.3192 96.1284 19.1624 95.9419 18.9591C95.7555 18.7472 95.6072 18.4887 95.497 18.1836C95.3953 17.8701 95.3445 17.5141 95.3445 17.1158ZM94.2004 17.1158C94.2004 17.5989 94.2682 18.048 94.4038 18.4633C94.5394 18.8785 94.7428 19.243 95.014 19.5565C95.2852 19.8616 95.6199 20.1031 96.0182 20.2811C96.4165 20.4506 96.8742 20.5353 97.3911 20.5353C97.9165 20.5353 98.3742 20.4506 98.764 20.2811C99.1623 20.1031 99.4971 19.8616 99.7683 19.5565C100.039 19.243 100.243 18.8785 100.378 18.4633C100.514 18.048 100.582 17.5989 100.582 17.1158C100.582 16.6328 100.514 16.1836 100.378 15.7683C100.243 15.3446 100.039 14.9802 99.7683 14.6751C99.4971 14.3615 99.1623 14.1158 98.764 13.9378C98.3742 13.7598 97.9165 13.6709 97.3911 13.6709C96.8742 13.6709 96.4165 13.7598 96.0182 13.9378C95.6199 14.1158 95.2852 14.3615 95.014 14.6751C94.7428 14.9802 94.5394 15.3446 94.4038 15.7683C94.2682 16.1836 94.2004 16.6328 94.2004 17.1158ZM107.932 20.3701C107.746 20.4803 107.487 20.5353 107.157 20.5353C106.877 20.5353 106.652 20.4591 106.483 20.3065C106.322 20.1455 106.241 19.887 106.241 19.5311C105.945 19.887 105.597 20.1455 105.199 20.3065C104.809 20.4591 104.385 20.5353 103.928 20.5353C103.631 20.5353 103.347 20.5014 103.076 20.4336C102.813 20.3658 102.585 20.2599 102.39 20.1158C102.195 19.9718 102.038 19.7853 101.919 19.5565C101.809 19.3192 101.754 19.0353 101.754 18.7048C101.754 18.3319 101.818 18.0268 101.945 17.7895C102.072 17.5523 102.237 17.3616 102.441 17.2175C102.652 17.065 102.89 16.9506 103.152 16.8743C103.424 16.798 103.699 16.7345 103.979 16.6836C104.275 16.6243 104.555 16.5819 104.818 16.5565C105.089 16.5226 105.326 16.4802 105.53 16.4294C105.733 16.37 105.894 16.2895 106.013 16.1878C106.131 16.0777 106.191 15.9209 106.191 15.7175C106.191 15.4802 106.144 15.2895 106.051 15.1455C105.966 15.0014 105.852 14.8912 105.708 14.8149C105.572 14.7387 105.415 14.6878 105.237 14.6624C105.068 14.637 104.898 14.6243 104.729 14.6243C104.271 14.6243 103.89 14.7132 103.585 14.8912C103.28 15.0607 103.114 15.387 103.089 15.87H102.008C102.025 15.4633 102.11 15.12 102.263 14.8404C102.415 14.5607 102.619 14.3361 102.873 14.1666C103.127 13.9887 103.415 13.8615 103.737 13.7853C104.068 13.709 104.419 13.6709 104.792 13.6709C105.089 13.6709 105.381 13.692 105.669 13.7344C105.966 13.7768 106.233 13.8658 106.47 14.0014C106.708 14.1285 106.898 14.3107 107.042 14.548C107.186 14.7853 107.258 15.0946 107.258 15.476V18.8574C107.258 19.1116 107.271 19.298 107.297 19.4167C107.33 19.5353 107.432 19.5947 107.602 19.5947C107.695 19.5947 107.805 19.5735 107.932 19.5311V20.3701ZM106.178 17.0014C106.042 17.1031 105.864 17.1794 105.644 17.2302C105.424 17.2726 105.191 17.3107 104.945 17.3446C104.708 17.3701 104.466 17.404 104.22 17.4463C103.974 17.4802 103.754 17.5395 103.559 17.6243C103.364 17.709 103.203 17.8319 103.076 17.9929C102.958 18.1455 102.898 18.3574 102.898 18.6285C102.898 18.8065 102.932 18.9591 103 19.0862C103.076 19.2048 103.169 19.3023 103.28 19.3785C103.398 19.4548 103.534 19.5099 103.686 19.5438C103.839 19.5777 104 19.5947 104.169 19.5947C104.525 19.5947 104.83 19.548 105.085 19.4548C105.339 19.3531 105.547 19.2302 105.708 19.0862C105.869 18.9336 105.987 18.7726 106.063 18.6031C106.14 18.4251 106.178 18.2599 106.178 18.1073V17.0014ZM109.98 17.1667C109.98 16.8446 110.014 16.5311 110.082 16.226C110.15 15.9209 110.26 15.6497 110.412 15.4124C110.565 15.1751 110.768 14.9844 111.023 14.8404C111.277 14.6963 111.586 14.6243 111.951 14.6243C112.323 14.6243 112.641 14.6963 112.904 14.8404C113.167 14.976 113.379 15.1582 113.54 15.387C113.709 15.6158 113.832 15.8827 113.908 16.1878C113.984 16.4845 114.023 16.7938 114.023 17.1158C114.023 17.4209 113.984 17.7218 113.908 18.0184C113.84 18.315 113.726 18.5819 113.565 18.8192C113.404 19.048 113.196 19.2345 112.942 19.3785C112.688 19.5226 112.378 19.5947 112.014 19.5947C111.667 19.5947 111.362 19.5269 111.099 19.3913C110.845 19.2557 110.633 19.0735 110.463 18.8446C110.302 18.6158 110.179 18.3574 110.095 18.0692C110.018 17.7726 109.98 17.4717 109.98 17.1667ZM115.065 20.3955V11.3191H113.984V14.7005H113.959C113.84 14.5056 113.692 14.3446 113.514 14.2175C113.345 14.0819 113.162 13.9759 112.967 13.8997C112.773 13.8149 112.578 13.7556 112.383 13.7217C112.188 13.6878 112.006 13.6709 111.836 13.6709C111.336 13.6709 110.895 13.7641 110.514 13.9505C110.141 14.1285 109.828 14.3743 109.573 14.6878C109.328 14.9929 109.141 15.3531 109.014 15.7683C108.895 16.1836 108.836 16.6243 108.836 17.0904C108.836 17.5565 108.9 17.9972 109.027 18.4124C109.154 18.8277 109.34 19.1921 109.586 19.5057C109.84 19.8192 110.154 20.0692 110.527 20.2557C110.908 20.4421 111.353 20.5353 111.862 20.5353C112.319 20.5353 112.739 20.4548 113.12 20.2938C113.501 20.1328 113.781 19.8701 113.959 19.5057H113.984V20.3955H115.065ZM121.562 17.1158C121.562 16.7175 121.613 16.3658 121.715 16.0607C121.825 15.7472 121.973 15.4844 122.159 15.2726C122.346 15.0607 122.562 14.8997 122.808 14.7895C123.062 14.6793 123.329 14.6243 123.609 14.6243C123.888 14.6243 124.151 14.6793 124.397 14.7895C124.651 14.8997 124.871 15.0607 125.058 15.2726C125.244 15.4844 125.388 15.7472 125.49 16.0607C125.6 16.3658 125.655 16.7175 125.655 17.1158C125.655 17.5141 125.6 17.8701 125.49 18.1836C125.388 18.4887 125.244 18.7472 125.058 18.9591C124.871 19.1624 124.651 19.3192 124.397 19.4294C124.151 19.5396 123.888 19.5947 123.609 19.5947C123.329 19.5947 123.062 19.5396 122.808 19.4294C122.562 19.3192 122.346 19.1624 122.159 18.9591C121.973 18.7472 121.825 18.4887 121.715 18.1836C121.613 17.8701 121.562 17.5141 121.562 17.1158ZM120.418 17.1158C120.418 17.5989 120.486 18.048 120.621 18.4633C120.757 18.8785 120.96 19.243 121.231 19.5565C121.503 19.8616 121.837 20.1031 122.236 20.2811C122.634 20.4506 123.092 20.5353 123.609 20.5353C124.134 20.5353 124.592 20.4506 124.982 20.2811C125.38 20.1031 125.715 19.8616 125.986 19.5565C126.257 19.243 126.46 18.8785 126.596 18.4633C126.732 18.048 126.799 17.5989 126.799 17.1158C126.799 16.6328 126.732 16.1836 126.596 15.7683C126.46 15.3446 126.257 14.9802 125.986 14.6751C125.715 14.3615 125.38 14.1158 124.982 13.9378C124.592 13.7598 124.134 13.6709 123.609 13.6709C123.092 13.6709 122.634 13.7598 122.236 13.9378C121.837 14.1158 121.503 14.3615 121.231 14.6751C120.96 14.9802 120.757 15.3446 120.621 15.7683C120.486 16.1836 120.418 16.6328 120.418 17.1158ZM128.328 13.8234V20.3955H129.408V16.6836C129.408 16.387 129.446 16.1158 129.522 15.87C129.607 15.6158 129.73 15.3955 129.891 15.209C130.052 15.0226 130.251 14.8785 130.489 14.7768C130.734 14.6751 131.022 14.6243 131.353 14.6243C131.768 14.6243 132.095 14.7429 132.332 14.9802C132.569 15.2175 132.688 15.5395 132.688 15.9463V20.3955H133.768V16.0734C133.768 15.7175 133.73 15.3955 133.654 15.1073C133.586 14.8107 133.463 14.5565 133.285 14.3446C133.107 14.1327 132.874 13.9675 132.586 13.8488C132.298 13.7302 131.938 13.6709 131.506 13.6709C130.531 13.6709 129.819 14.0692 129.37 14.8658H129.345V13.8234H128.328ZM140.938 13.8234V11.853H139.857V13.8234H138.738V14.7768H139.857V18.9591C139.857 19.2641 139.887 19.5099 139.946 19.6963C140.005 19.8828 140.094 20.0269 140.213 20.1286C140.34 20.2303 140.501 20.3023 140.696 20.3447C140.9 20.3786 141.141 20.3955 141.421 20.3955H142.247V19.4421H141.751C141.582 19.4421 141.442 19.4379 141.332 19.4294C141.23 19.4124 141.15 19.3828 141.09 19.3404C141.031 19.298 140.988 19.2387 140.963 19.1624C140.946 19.0862 140.938 18.9845 140.938 18.8574V14.7768H142.247V13.8234H140.938ZM143.702 11.3191V20.3955H144.782V16.6836C144.782 16.387 144.82 16.1158 144.897 15.87C144.981 15.6158 145.104 15.3955 145.265 15.209C145.426 15.0226 145.625 14.8785 145.863 14.7768C146.108 14.6751 146.397 14.6243 146.727 14.6243C147.142 14.6243 147.469 14.7429 147.706 14.9802C147.943 15.2175 148.062 15.5395 148.062 15.9463V20.3955H149.142V16.0734C149.142 15.7175 149.104 15.3955 149.028 15.1073C148.96 14.8107 148.837 14.5565 148.659 14.3446C148.481 14.1327 148.248 13.9675 147.96 13.8488C147.672 13.7302 147.312 13.6709 146.88 13.6709C146.685 13.6709 146.481 13.692 146.269 13.7344C146.066 13.7768 145.867 13.8446 145.672 13.9378C145.486 14.0226 145.316 14.137 145.163 14.281C145.011 14.4166 144.892 14.5861 144.808 14.7895H144.782V11.3191H143.702ZM155.583 16.4802H151.808C151.825 16.226 151.88 15.9887 151.973 15.7683C152.066 15.5395 152.193 15.3404 152.354 15.1709C152.515 15.0014 152.706 14.87 152.926 14.7768C153.155 14.6751 153.409 14.6243 153.689 14.6243C153.96 14.6243 154.206 14.6751 154.426 14.7768C154.655 14.87 154.85 15.0014 155.011 15.1709C155.181 15.3319 155.312 15.5268 155.405 15.7556C155.507 15.9844 155.566 16.226 155.583 16.4802ZM156.625 18.3107H155.558C155.464 18.7429 155.269 19.065 154.973 19.2769C154.685 19.4887 154.312 19.5947 153.854 19.5947C153.498 19.5947 153.189 19.5353 152.926 19.4167C152.664 19.298 152.447 19.1413 152.278 18.9463C152.108 18.7429 151.986 18.5141 151.909 18.2599C151.833 17.9972 151.799 17.7218 151.808 17.4336H156.727C156.744 17.0353 156.706 16.6158 156.613 16.1751C156.528 15.7344 156.367 15.3277 156.13 14.9548C155.901 14.5819 155.592 14.2768 155.202 14.0395C154.82 13.7937 154.337 13.6709 153.753 13.6709C153.303 13.6709 152.888 13.7556 152.507 13.9251C152.134 14.0946 151.808 14.3319 151.528 14.637C151.257 14.9421 151.045 15.3022 150.892 15.7175C150.74 16.1328 150.664 16.5904 150.664 17.0904C150.68 17.5904 150.752 18.0523 150.88 18.476C151.015 18.8997 151.214 19.2641 151.477 19.5692C151.74 19.8743 152.062 20.1116 152.443 20.2811C152.833 20.4506 153.291 20.5353 153.816 20.5353C154.562 20.5353 155.181 20.3489 155.672 19.976C156.164 19.6031 156.481 19.048 156.625 18.3107Z" fill="white"/>
<path d="M80.6051 31.6679C83.8506 31.6679 85.99 34.2335 85.99 38.1963C85.99 42.1702 83.8631 44.7234 80.6534 44.7234C78.9943 44.8102 77.4315 43.9412 76.6299 42.4861H76.5691V48.82H73.9442V31.8017H76.485V33.9286H76.5333C77.3706 32.4827 78.9351 31.614 80.6051 31.6679ZM94.6798 31.6679C97.9255 31.6679 100.065 34.2335 100.065 38.1963C100.065 42.1702 97.9379 44.7234 94.7282 44.7234C93.0691 44.8102 91.5063 43.9412 90.7046 42.4861H90.6439V48.82H88.019V31.8017H90.5597V33.9286H90.608C91.4453 32.4827 93.0098 31.614 94.6798 31.6679ZM113.524 26.7574C117.231 26.7574 119.771 28.8361 119.857 31.8623H117.207C117.049 30.1119 115.602 29.0554 113.487 29.0554C111.373 29.0554 109.926 30.1244 109.926 31.6803C109.926 32.9203 110.85 33.65 113.111 34.2085L115.043 34.683C118.642 35.5341 120.137 36.9797 120.137 39.5452C120.137 42.8266 117.523 44.8819 113.366 44.8819C109.476 44.8819 106.85 42.8749 106.68 39.7024L109.367 39.7026C109.562 41.4419 111.251 42.5839 113.56 42.5839C115.773 42.5839 117.365 41.4419 117.365 39.8735C117.365 38.5121 116.404 37.697 114.131 37.1383L111.858 36.5907C108.637 35.8128 107.142 34.3065 107.142 31.8623C107.142 28.8361 109.78 26.7574 113.524 26.7574ZM135.707 31.6445C139.415 31.6445 141.773 34.1727 141.773 38.1963C141.773 42.2309 139.427 44.7482 135.707 44.7482C131.988 44.7482 129.642 42.2309 129.642 38.1963C129.642 34.1728 132.012 31.6445 135.707 31.6445ZM156.963 31.6445C160.501 31.6445 162.725 34.0748 162.725 37.9522V38.8515H153.694V39.0101C153.609 39.9622 153.938 40.9045 154.596 41.5976C155.254 42.2906 156.179 42.6674 157.134 42.6323C158.407 42.7516 159.608 42.0202 160.087 40.8336L162.579 40.8336C162.226 43.155 159.965 44.7482 157.073 44.7482C153.353 44.7482 151.044 42.2557 151.044 38.257C151.044 34.2459 153.365 31.6445 156.963 31.6445ZM125.802 28.7754V31.8017H128.234V33.8804H125.802V40.9302C125.802 42.0254 126.289 42.5357 127.358 42.5357C127.647 42.5307 127.935 42.5104 128.221 42.475V44.5412C127.741 44.631 127.252 44.6717 126.763 44.6626C124.174 44.6626 123.165 43.6902 123.165 41.2101V33.8804H121.305V31.8017H123.165V28.7754H125.802ZM65.9813 27.0498L72.3139 44.5896H69.4338L67.8297 39.8488H61.144L59.5384 44.5896H56.7067L63.0392 27.0498H65.9813ZM149.578 31.6679C149.88 31.6668 150.182 31.6997 150.477 31.7658V34.2211C150.095 34.1044 149.697 34.0508 149.298 34.0624C148.526 34.0311 147.779 34.3387 147.253 34.9043C146.727 35.47 146.475 36.2372 146.562 37.0046V44.5895H143.937V31.8017H146.441V33.9783H146.502C146.851 32.5771 148.135 31.6128 149.578 31.6679ZM135.707 33.8073C133.58 33.8073 132.317 35.4487 132.317 38.1963C132.317 40.9674 133.58 42.584 135.707 42.584C137.834 42.584 139.099 40.9674 139.099 38.1963C139.099 35.4363 137.834 33.8073 135.707 33.8073ZM79.9127 33.9052C77.9071 33.9052 76.5581 35.6432 76.5581 38.1963C76.5581 40.7729 77.9071 42.4985 79.9127 42.4985C81.9541 42.4985 83.2921 40.8088 83.2921 38.1963C83.2921 35.6073 81.9541 33.9052 79.9127 33.9052ZM93.9874 33.9052C91.9819 33.9052 90.6329 35.6432 90.6329 38.1963C90.6329 40.7729 91.9819 42.4985 93.9874 42.4985C96.0289 42.4985 97.3668 40.8088 97.3668 38.1963C97.3668 35.6073 96.0289 33.9052 93.9874 33.9052ZM64.5234 29.9672H64.4503L61.8364 37.6611H67.1359L64.5234 29.9672ZM156.963 33.7714C156.099 33.7662 155.27 34.1062 154.658 34.7157C154.047 35.3251 153.704 36.1536 153.706 37.017H160.099C160.147 36.1615 159.835 35.325 159.24 34.7089C158.645 34.0928 157.819 33.753 156.963 33.7714Z" fill="white"/>
<rect x="0.706222" y="1.26958" width="182.205" height="55.0853" rx="7.76844" stroke="#A6A6A6" stroke-width="1.41244"/>
</svg>
