<svg width="184" height="58" viewBox="0 0 184 58" fill="none" xmlns="http://www.w3.org/2000/svg">
<rect x="1.07505" y="1.26963" width="182.219" height="55.0894" rx="7.76901" fill="#1C1C1C"/>
<path fill-rule="evenodd" clip-rule="evenodd" d="M13.9044 11.2888C13.4934 11.7239 13.2518 12.3977 13.2518 13.2721V44.4865C13.2518 45.3609 13.4934 46.0347 13.9044 46.4698L14.009 46.5715L31.4949 29.0855V28.6731L14.009 11.1871L13.9044 11.2888Z" fill="#00D7FE"/>
<mask id="mask0_915_2598" style="mask-type:alpha" maskUnits="userSpaceOnUse" x="31" y="22" width="15" height="13">
<path d="M37.321 34.9162L31.4943 29.0852V28.6727L37.3238 22.8431L44.3612 26.8407C46.3331 27.9622 46.3331 29.7957 44.3612 30.9159L37.4552 34.8399L37.321 34.9162Z" fill="white"/>
</mask>
<g mask="url(#mask0_915_2598)">
<path fill-rule="evenodd" clip-rule="evenodd" d="M37.3213 34.9164L31.4945 29.0854V28.673L37.3241 22.8434L44.3614 26.8409C46.3333 27.9625 46.3333 29.7959 44.3614 30.9161L37.4555 34.8402L37.3213 34.9164Z" fill="url(#paint0_linear_915_2598)"/>
</g>
<mask id="mask1_915_2598" style="mask-type:alpha" maskUnits="userSpaceOnUse" x="13" y="28" width="25" height="20">
<path d="M37.455 34.84L31.494 28.879L13.9036 46.4695C14.5547 47.1574 15.6283 47.2422 16.8374 46.5557L37.455 34.84Z" fill="white"/>
</mask>
<g mask="url(#mask1_915_2598)">
<path fill-rule="evenodd" clip-rule="evenodd" d="M37.4551 34.8403L31.4941 28.8794L13.9037 46.4699C14.5549 47.1578 15.6284 47.2425 16.8375 46.556L37.4551 34.8403Z" fill="url(#paint1_linear_915_2598)"/>
</g>
<mask id="mask2_915_2598" style="mask-type:alpha" maskUnits="userSpaceOnUse" x="13" y="10" width="25" height="19">
<path d="M37.455 22.9187L16.8374 11.203C15.6283 10.5165 14.5547 10.6013 13.9036 11.2892L31.494 28.8796L37.455 22.9187Z" fill="white"/>
</mask>
<g mask="url(#mask2_915_2598)">
<path fill-rule="evenodd" clip-rule="evenodd" d="M37.4551 22.9184L16.8375 11.2027C15.6284 10.5162 14.5549 10.601 13.9037 11.2889L31.4941 28.8793L37.4551 22.9184Z" fill="url(#paint2_linear_915_2598)"/>
</g>
<path fill-rule="evenodd" clip-rule="evenodd" d="M147.332 44.3485H149.968V26.6902H147.332V44.3485ZM171.073 33.0509L168.051 40.7069H167.961L164.825 33.0509H161.986L166.688 43.751L164.007 49.7035H166.758L174.004 33.0509H171.073ZM156.125 42.3427C155.261 42.3427 154.057 41.9118 154.057 40.844C154.057 39.4809 155.557 38.9582 156.851 38.9582C158.011 38.9582 158.555 39.2082 159.26 39.5487C159.055 41.1844 157.647 42.3427 156.125 42.3427ZM156.443 32.6653C154.535 32.6653 152.559 33.5058 151.741 35.3689L154.08 36.345C154.58 35.3689 155.511 35.0497 156.488 35.0497C157.851 35.0497 159.237 35.8676 159.26 37.3225V37.5033C158.782 37.2307 157.761 36.8224 156.511 36.8224C153.99 36.8224 151.422 38.2081 151.422 40.7973C151.422 43.1605 153.49 44.6833 155.806 44.6833C157.579 44.6833 158.555 43.888 159.169 42.9557H159.26V44.3188H161.804V37.5499C161.804 34.414 159.465 32.6653 156.443 32.6653ZM140.154 35.2008H136.405V29.1481H140.154C142.124 29.1481 143.243 30.7796 143.243 32.1737C143.243 33.5425 142.124 35.2008 140.154 35.2008ZM140.086 26.6902H133.77V44.3485H136.405V37.6587H140.086C143.007 37.6587 145.879 35.5427 145.879 32.1737C145.879 28.8048 143.007 26.6902 140.086 26.6902ZM105.647 42.3455C103.826 42.3455 102.302 40.8214 102.302 38.728C102.302 36.612 103.826 35.0638 105.647 35.0638C107.445 35.0638 108.854 36.612 108.854 38.728C108.854 40.8214 107.445 42.3455 105.647 42.3455ZM108.672 34.0397H108.582C107.99 33.3349 106.853 32.6978 105.419 32.6978C102.415 32.6978 99.6615 35.3364 99.6615 38.728C99.6615 42.0955 102.415 44.7129 105.419 44.7129C106.853 44.7129 107.99 44.0759 108.582 43.347H108.672V44.2115C108.672 46.5111 107.445 47.74 105.464 47.74C103.848 47.74 102.847 46.5789 102.437 45.6L100.139 46.5563C100.799 48.1497 102.552 50.106 105.464 50.106C108.559 50.106 111.177 48.2853 111.177 43.8485V33.0608H108.672V34.0397ZM112.997 44.3485H115.637V26.6888H112.997V44.3485ZM119.528 38.5231C119.46 36.2023 121.326 35.0186 122.668 35.0186C123.716 35.0186 124.603 35.5413 124.898 36.2927L119.528 38.5231ZM127.72 36.5201C127.22 35.1782 125.695 32.6978 122.577 32.6978C119.482 32.6978 116.912 35.1316 116.912 38.7054C116.912 42.0729 119.46 44.7129 122.873 44.7129C125.627 44.7129 127.22 43.0292 127.88 42.0503L125.832 40.6843C125.15 41.6858 124.216 42.3455 122.873 42.3455C121.531 42.3455 120.574 41.731 119.96 40.5261L127.993 37.2038L127.72 36.5201ZM63.7207 34.5412V37.0894H69.8186C69.6364 38.5231 69.159 39.5698 68.4315 40.2987C67.543 41.1858 66.1545 42.1633 63.7207 42.1633C59.9661 42.1633 57.0294 39.1376 57.0294 35.3831C57.0294 31.6271 59.9661 28.6014 63.7207 28.6014C65.7463 28.6014 67.2252 29.3981 68.3171 30.4222L70.1153 28.624C68.5897 27.1677 66.5656 26.0518 63.7207 26.0518C58.5776 26.0518 54.2538 30.24 54.2538 35.3831C54.2538 40.5261 58.5776 44.7129 63.7207 44.7129C66.4963 44.7129 68.5897 43.8032 70.2283 42.0955C71.912 40.4117 72.4361 38.0457 72.4361 36.1331C72.4361 35.5413 72.3909 34.996 72.2991 34.5412H63.7207ZM79.3703 42.3455C77.5495 42.3455 75.9788 40.844 75.9788 38.7054C75.9788 36.5428 77.5495 35.0638 79.3703 35.0638C81.1897 35.0638 82.7604 36.5428 82.7604 38.7054C82.7604 40.844 81.1897 42.3455 79.3703 42.3455ZM79.3703 32.6978C76.0466 32.6978 73.3387 35.2234 73.3387 38.7054C73.3387 42.1633 76.0466 44.7129 79.3703 44.7129C82.6926 44.7129 85.4005 42.1633 85.4005 38.7054C85.4005 35.2234 82.6926 32.6978 79.3703 32.6978ZM92.5254 42.3455C90.7046 42.3455 89.1338 40.844 89.1338 38.7054C89.1338 36.5428 90.7046 35.0638 92.5254 35.0638C94.3461 35.0638 95.9155 36.5428 95.9155 38.7054C95.9155 40.844 94.3461 42.3455 92.5254 42.3455ZM92.5254 32.6978C89.203 32.6978 86.4952 35.2234 86.4952 38.7054C86.4952 42.1633 89.203 44.7129 92.5254 44.7129C95.8477 44.7129 98.5555 42.1633 98.5555 38.7054C98.5555 35.2234 95.8477 32.6978 92.5254 32.6978Z" fill="white"/>
<path d="M61.9821 15.1886V18.4972C61.8704 18.6627 61.6924 18.8489 61.4483 19.0559C61.2041 19.2586 60.8668 19.4366 60.4364 19.5897C60.0102 19.7387 59.4598 19.8132 58.7852 19.8132C58.2349 19.8132 57.7279 19.718 57.2644 19.5276C56.8051 19.3331 56.4057 19.0517 56.0664 18.6834C55.7312 18.311 55.4705 17.8599 55.2842 17.3302C55.1021 16.7963 55.0111 16.1921 55.0111 15.5176V14.8161C55.0111 14.1416 55.0897 13.5395 55.247 13.0098C55.4084 12.4801 55.6443 12.0311 55.9546 11.6627C56.265 11.2903 56.6457 11.0089 57.0968 10.8185C57.5479 10.624 58.0652 10.5268 58.6487 10.5268C59.3398 10.5268 59.9171 10.6468 60.3806 10.8868C60.8482 11.1227 61.2124 11.4496 61.4731 11.8676C61.7379 12.2856 61.9076 12.7615 61.9821 13.2953H60.7841C60.7303 12.9684 60.6227 12.6704 60.4613 12.4014C60.304 12.1324 60.0785 11.9173 59.7847 11.7559C59.4908 11.5903 59.1122 11.5076 58.6487 11.5076C58.2307 11.5076 57.8686 11.5841 57.5624 11.7372C57.2561 11.8904 57.0037 12.1097 56.8051 12.3952C56.6064 12.6808 56.4574 13.0263 56.3581 13.4319C56.2629 13.8374 56.2153 14.2947 56.2153 14.8037V15.5176C56.2153 16.039 56.2754 16.5046 56.3954 16.9143C56.5195 17.324 56.6954 17.6737 56.923 17.9633C57.1506 18.2489 57.4217 18.4662 57.7362 18.6151C58.0548 18.7641 58.4066 18.8386 58.7915 18.8386C59.2177 18.8386 59.5633 18.8034 59.8281 18.7331C60.093 18.6586 60.2999 18.5717 60.4489 18.4724C60.5978 18.3689 60.7116 18.2716 60.7903 18.1806V16.157H58.6983V15.1886H61.9821ZM69.329 18.7145V19.689H64.5431V18.7145H69.329ZM64.7852 10.6509V19.689H63.5871V10.6509H64.7852ZM68.6959 14.5368V15.5114H64.5431V14.5368H68.6959ZM69.267 10.6509V11.6317H64.5431V10.6509H69.267ZM73.895 10.6509V19.689H72.7156V10.6509H73.895ZM76.8001 10.6509V11.6317H69.8167V10.6509H76.8001ZM81.5682 10.6509V19.689H80.3702V10.6509H81.5682ZM86.5191 10.6509V19.689H85.3396V10.6509H86.5191ZM89.4242 10.6509V11.6317H82.4407V10.6509H89.4242ZM99.8659 14.8844V15.4555C99.8659 16.1342 99.7811 16.7425 99.6114 17.2805C99.4417 17.8185 99.1976 18.2758 98.8789 18.6524C98.5602 19.029 98.1775 19.3166 97.7305 19.5152C97.2877 19.7139 96.7911 19.8132 96.2407 19.8132C95.7069 19.8132 95.2165 19.7139 94.7695 19.5152C94.3267 19.3166 93.9419 19.029 93.615 18.6524C93.2922 18.2758 93.0418 17.8185 92.8638 17.2805C92.6859 16.7425 92.5969 16.1342 92.5969 15.4555V14.8844C92.5969 14.2057 92.6838 13.5995 92.8576 13.0656C93.0356 12.5277 93.286 12.0704 93.6087 11.6938C93.9315 11.3131 94.3143 11.0234 94.7571 10.8247C95.2041 10.6261 95.6945 10.5268 96.2283 10.5268C96.7787 10.5268 97.2753 10.6261 97.7181 10.8247C98.165 11.0234 98.5478 11.3131 98.8665 11.6938C99.1893 12.0704 99.4355 12.5277 99.6052 13.0656C99.779 13.5995 99.8659 14.2057 99.8659 14.8844ZM98.6803 15.4555V14.872C98.6803 14.334 98.6244 13.8581 98.5127 13.4443C98.4051 13.0305 98.2457 12.6828 98.0347 12.4014C97.8236 12.12 97.565 11.9069 97.2587 11.7621C96.9566 11.6172 96.6132 11.5448 96.2283 11.5448C95.8559 11.5448 95.5186 11.6172 95.2165 11.7621C94.9185 11.9069 94.6619 12.12 94.4468 12.4014C94.2357 12.6828 94.0722 13.0305 93.9564 13.4443C93.8405 13.8581 93.7826 14.334 93.7826 14.872V15.4555C93.7826 15.9976 93.8405 16.4777 93.9564 16.8957C94.0722 17.3095 94.2378 17.6592 94.453 17.9447C94.6723 18.2261 94.9309 18.4393 95.2289 18.5841C95.531 18.7289 95.8683 18.8014 96.2407 18.8014C96.6297 18.8014 96.9753 18.7289 97.2774 18.5841C97.5795 18.4393 97.834 18.2261 98.0409 17.9447C98.2519 17.6592 98.4113 17.3095 98.5189 16.8957C98.6265 16.4777 98.6803 15.9976 98.6803 15.4555ZM108.231 10.6509V19.689H107.027L102.477 12.718V19.689H101.278V10.6509H102.477L107.045 17.6406V10.6509H108.231Z" fill="white"/>
<rect x="1.07505" y="1.26963" width="182.219" height="55.0894" rx="7.76901" stroke="#A6A6A6" stroke-width="1.41255"/>
<defs>
<linearGradient id="paint0_linear_915_2598" x1="43.0785" y1="28.8796" x2="31.4945" y2="28.8796" gradientUnits="userSpaceOnUse">
<stop stop-color="#FFBC00"/>
<stop offset="1" stop-color="#FFDA03"/>
</linearGradient>
<linearGradient id="paint1_linear_915_2598" x1="34.2156" y1="34.4883" x2="19.0964" y2="46.9506" gradientUnits="userSpaceOnUse">
<stop stop-color="#E22652"/>
<stop offset="1" stop-color="#FF3A44"/>
</linearGradient>
<linearGradient id="paint2_linear_915_2598" x1="16.5673" y1="13.4065" x2="26.6476" y2="22.2701" gradientUnits="userSpaceOnUse">
<stop stop-color="#0ED574"/>
<stop offset="1" stop-color="#07F076"/>
</linearGradient>
</defs>
</svg>
