<svg xmlns="http://www.w3.org/2000/svg" viewBox="0 0 15.87 15.86"><path d="M15.81,4.66a4.68,4.68,0,0,0-1.28-3.32A4.69,4.69,0,0,0,11.21.06C9.9,0,6,0,4.66.06A4.73,4.73,0,0,0,1.34,1.33,4.72,4.72,0,0,0,.06,4.66C0,6,0,9.89.06,11.2a4.72,4.72,0,0,0,1.28,3.33,4.78,4.78,0,0,0,3.32,1.28c1.31.07,5.24.07,6.55,0a4.69,4.69,0,0,0,3.32-1.28,4.72,4.72,0,0,0,1.28-3.33C15.89,9.89,15.89,6,15.81,4.66Zm-1.69,8a2.7,2.7,0,0,1-1.51,1.51c-1,.41-3.52.31-4.67.31s-3.64.1-4.68-.31a2.7,2.7,0,0,1-1.51-1.51,17.68,17.68,0,0,1-.32-4.68,17.61,17.61,0,0,1,.32-4.67A2.67,2.67,0,0,1,3.26,1.75c1-.42,3.52-.32,4.68-.32a17.61,17.61,0,0,1,4.67.32,2.64,2.64,0,0,1,1.51,1.51,17.61,17.61,0,0,1,.32,4.67A17.65,17.65,0,0,1,14.12,12.61Z"/><path d="M13.12,3.7a.95.95,0,1,1-.95-1,.95.95,0,0,1,.95,1"/><path d="M7.94,3.86A4.07,4.07,0,1,0,12,7.93,4.06,4.06,0,0,0,7.94,3.86Zm0,6.72a2.65,2.65,0,1,1,2.64-2.65A2.65,2.65,0,0,1,7.94,10.58Z"/></svg>