<svg xmlns="http://www.w3.org/2000/svg" viewBox="0 0 29.99 29.99"><path d="M22.92,20.85a8,8,0,0,0-4-5.86,8,8,0,0,0,4-5.86,5.93,5.93,0,0,1,0,11.72m-6.78-4.71a6,6,0,0,1,4.69,4.68,6,6,0,0,1-4.69-4.68M15,27.92a6,6,0,0,1-5.86-5,8,8,0,0,0,5.86-4,8,8,0,0,0,5.87,4,6,6,0,0,1-5.87,5M13.85,16.14a6,6,0,0,1-4.69,4.68,6,6,0,0,1,4.69-4.68M2.07,15a6,6,0,0,1,5-5.86,8,8,0,0,0,4,5.86,8,8,0,0,0-4,5.86,5.94,5.94,0,0,1-5-5.86m11.78-1.14A6,6,0,0,1,9.16,9.16a6,6,0,0,1,4.69,4.69m7-4.69a6,6,0,0,1-4.69,4.69,6,6,0,0,1,4.69-4.69M15,2.07a6,6,0,0,1,5.87,5,8,8,0,0,0-5.87,4,8,8,0,0,0-5.86-4,6,6,0,0,1,5.86-5M30,15a8,8,0,0,0-7-7.95A8,8,0,0,0,7.05,7a8,8,0,0,0,0,15.9,8,8,0,0,0,15.89,0,8,8,0,0,0,7-8"/></svg>