<svg xmlns="http://www.w3.org/2000/svg" viewBox="0 0 146.11 30.21">
<path d="M22.92,20.86a8,8,0,0,0-4-5.87,8,8,0,0,0,4-5.86,5.94,5.94,0,0,1,0,11.73m-6.78-4.72a6,6,0,0,1,4.69,4.68,6,6,0,0,1-4.69-4.68M15,27.92a6,6,0,0,1-5.86-5,8,8,0,0,0,5.86-4,8,8,0,0,0,5.87,4,6,6,0,0,1-5.87,5M13.85,16.14a6,6,0,0,1-4.69,4.68,6,6,0,0,1,4.69-4.68M2.07,15a6,6,0,0,1,5-5.86,8,8,0,0,0,4,5.86,8,8,0,0,0-4,5.87,6,6,0,0,1-5-5.87m11.78-1.14A6,6,0,0,1,9.16,9.16a6,6,0,0,1,4.69,4.69m7-4.69a6,6,0,0,1-4.69,4.69,6,6,0,0,1,4.69-4.69M15,2.07a6,6,0,0,1,5.87,5,8,8,0,0,0-5.87,4,8,8,0,0,0-5.86-4,6,6,0,0,1,5.86-5M30,15a8,8,0,0,0-7-7.95A8,8,0,0,0,7.05,7a8,8,0,0,0,0,15.9,8,8,0,0,0,15.89,0,8,8,0,0,0,7-8"/><polygon points="37.22 4.11 52.98 4.11 52.98 7.04 46.75 7.04 46.75 24.28 43.44 24.28 43.44 7.04 37.22 7.04 37.22 4.11"/><path d="M57.91,4.64A1.79,1.79,0,0,1,58.45,6a1.81,1.81,0,0,1-.54,1.34,1.9,1.9,0,0,1-1.36.53,1.86,1.86,0,0,1-1.35-.53A1.78,1.78,0,0,1,54.65,6a1.76,1.76,0,0,1,.55-1.34,1.83,1.83,0,0,1,1.35-.54,1.87,1.87,0,0,1,1.36.54"/><rect x="55" y="9.52" width="3.11" height="14.75"/><path d="M82.14,10.92c1,1.05,1.53,2.72,1.53,5v8.33H80.56V16A4.73,4.73,0,0,0,79.78,13a2.75,2.75,0,0,0-2.31-1,3.14,3.14,0,0,0-2.55,1.14A4.8,4.8,0,0,0,74,16.29v8H70.84V16a4.69,4.69,0,0,0-.79-3,2.8,2.8,0,0,0-2.32-1,3,3,0,0,0-2.52,1.18,5,5,0,0,0-.94,3.17v7.9H61.16V9.52h2.71l.35,1.93a5.21,5.21,0,0,1,4.32-2.1,5.53,5.53,0,0,1,2.74.66,4.37,4.37,0,0,1,1.81,2,5.45,5.45,0,0,1,2-2,6.06,6.06,0,0,1,3-.71,5.25,5.25,0,0,1,4,1.57"/><path d="M97.24,15.29A3.76,3.76,0,0,0,96,12.76a4.11,4.11,0,0,0-2.72-.9,4,4,0,0,0-2.64.93,3.66,3.66,0,0,0-1.28,2.5ZM86.85,12.94a6.43,6.43,0,0,1,2.54-2.65,7.28,7.28,0,0,1,3.73-.94,8,8,0,0,1,3.76.86,6.51,6.51,0,0,1,2.57,2.45,7.45,7.45,0,0,1,1,3.72,9.48,9.48,0,0,1-.08,1.18H89.2v.18a4.62,4.62,0,0,0,1.21,3.05,3.87,3.87,0,0,0,2.91,1.12,4.16,4.16,0,0,0,2.42-.67A3.17,3.17,0,0,0,97,19.32h3.11A6,6,0,0,1,98,23a6.8,6.8,0,0,1-4.43,1.44,8.23,8.23,0,0,1-4-.94,6.58,6.58,0,0,1-2.65-2.63A8.12,8.12,0,0,1,86,16.93a8.45,8.45,0,0,1,.9-4"/><rect x="102.92" y="4.1" width="3.11" height="20.17"/><path d="M112,4.64A1.79,1.79,0,0,1,112.54,6,1.81,1.81,0,0,1,112,7.32a1.9,1.9,0,0,1-1.36.53,1.86,1.86,0,0,1-1.35-.53A1.78,1.78,0,0,1,108.74,6a1.76,1.76,0,0,1,.55-1.34,1.83,1.83,0,0,1,1.35-.54,1.87,1.87,0,0,1,1.36.54"/><rect x="109.08" y="9.52" width="3.11" height="14.75"/><path d="M127.31,11Q129,12.58,129,16.15v8.13h-3.14v-8a5,5,0,0,0-.9-3.2A3.18,3.18,0,0,0,122.31,12a3.54,3.54,0,0,0-2.89,1.28,5.37,5.37,0,0,0-1.06,3.53v7.44h-3.11V9.52H118l.35,1.93A5.68,5.68,0,0,1,123,9.35,5.89,5.89,0,0,1,127.31,11"/><path d="M141.85,20.37A5,5,0,0,0,143,16.9a5.24,5.24,0,0,0-1.18-3.56,4.23,4.23,0,0,0-6.22,0,5.13,5.13,0,0,0-1.19,3.51,5.17,5.17,0,0,0,1.19,3.52,4.27,4.27,0,0,0,6.22,0m4.26-10.85V23.67a6.26,6.26,0,0,1-1.84,4.83q-1.85,1.71-5.71,1.71a8.15,8.15,0,0,1-4.87-1.34,4.91,4.91,0,0,1-2.07-3.79h3.17A3,3,0,0,0,136.11,27a4.86,4.86,0,0,0,2.68.68c2.83,0,4.24-1.38,4.24-4.12V21.91a5.38,5.38,0,0,1-4.81,2.42,7.13,7.13,0,0,1-3.6-.9,6.29,6.29,0,0,1-2.48-2.6,8.34,8.34,0,0,1-.9-4,8.28,8.28,0,0,1,.91-3.92,6.6,6.6,0,0,1,2.5-2.63,6.8,6.8,0,0,1,3.57-.94,6,6,0,0,1,2.88.66,5.35,5.35,0,0,1,2,1.82l.35-2.31Z"/></svg>