<svg width="189" height="56" viewBox="0 0 189 56" fill="none" xmlns="http://www.w3.org/2000/svg">
<path d="M182 0H7C3.13401 0 0 3.13401 0 7V49C0 52.866 3.13401 56 7 56H182C185.866 56 189 52.866 189 49V7C189 3.13401 185.866 0 182 0Z" fill="black"/>
<path d="M182 1.12C183.559 1.12 185.055 1.7395 186.158 2.84221C187.26 3.94493 187.88 5.44053 187.88 7V49C187.88 50.5595 187.26 52.0551 186.158 53.1578C185.055 54.2605 183.559 54.88 182 54.88H7C5.44053 54.88 3.94493 54.2605 2.84221 53.1578C1.7395 52.0551 1.12 50.5595 1.12 49V7C1.12 5.44053 1.7395 3.94493 2.84221 2.84221C3.94493 1.7395 5.44053 1.12 7 1.12H182ZM182 0H7C5.14348 0 3.36301 0.737498 2.05025 2.05025C0.737498 3.36301 0 5.14348 0 7V49C0 50.8565 0.737498 52.637 2.05025 53.9497C3.36301 55.2625 5.14348 56 7 56H182C183.857 56 185.637 55.2625 186.95 53.9497C188.263 52.637 189 50.8565 189 49V7C189 5.14348 188.263 3.36301 186.95 2.05025C185.637 0.737498 183.857 0 182 0Z" fill="#A6A6A6"/>
<path d="M95.396 30.45C94.2165 30.4528 93.0642 30.8052 92.085 31.4629C91.1058 32.1205 90.3435 33.0537 89.8947 34.1446C89.4459 35.2354 89.3306 36.4349 89.5634 37.5912C89.7962 38.7476 90.3667 39.8089 91.2028 40.641C92.0388 41.4732 93.1028 42.0387 94.2603 42.2661C95.4177 42.4935 96.6166 42.3726 97.7053 41.9186C98.794 41.4647 99.7237 40.6981 100.377 39.7157C101.03 38.7334 101.377 37.5795 101.374 36.4C101.385 35.6131 101.238 34.8319 100.942 34.1031C100.645 33.3742 100.205 32.7125 99.6468 32.1573C99.089 31.6021 98.4252 31.1649 97.695 30.8716C96.9647 30.5782 96.1829 30.4349 95.396 30.45V30.45ZM95.396 40.012C94.6731 40.0625 93.9516 39.8944 93.3254 39.5295C92.6992 39.1646 92.1973 38.6198 91.8849 37.9658C91.5725 37.3118 91.464 36.579 91.5736 35.8626C91.6832 35.1462 92.0058 34.4793 92.4994 33.9486C92.993 33.418 93.6349 33.0481 94.3415 32.8871C95.0482 32.726 95.7869 32.7813 96.4617 33.0457C97.1365 33.3101 97.7162 33.7714 98.1254 34.3696C98.5345 34.9678 98.7543 35.6752 98.756 36.4C98.7786 36.8592 98.709 37.3183 98.5513 37.7502C98.3936 38.1821 98.151 38.578 97.8378 38.9146C97.5247 39.2513 97.1473 39.5218 96.7279 39.7103C96.3086 39.8987 95.8557 40.0013 95.396 40.012ZM82.348 30.45C81.1685 30.4528 80.0162 30.8052 79.037 31.4629C78.0578 32.1205 77.2955 33.0537 76.8467 34.1446C76.3979 35.2354 76.2826 36.4349 76.5154 37.5912C76.7482 38.7476 77.3187 39.8089 78.1548 40.641C78.9908 41.4732 80.0548 42.0387 81.2123 42.2661C82.3697 42.4935 83.5686 42.3726 84.6573 41.9186C85.746 41.4647 86.6757 40.6981 87.3287 39.7157C87.9817 38.7334 88.3288 37.5795 88.326 36.4C88.3374 35.6131 88.1904 34.8319 87.8937 34.1031C87.5969 33.3742 87.1566 32.7125 86.5988 32.1573C86.041 31.6021 85.3772 31.1649 84.647 30.8716C83.9167 30.5782 83.1349 30.4349 82.348 30.45V30.45ZM82.348 40.012C81.6251 40.0625 80.9036 39.8944 80.2774 39.5295C79.6512 39.1646 79.1493 38.6198 78.8369 37.9658C78.5245 37.3118 78.416 36.579 78.5256 35.8626C78.6352 35.1462 78.9578 34.4793 79.4514 33.9486C79.945 33.418 80.5869 33.0481 81.2935 32.8871C82.0002 32.726 82.7389 32.7813 83.4137 33.0457C84.0885 33.3101 84.6682 33.7714 85.0774 34.3696C85.4865 34.9678 85.7063 35.6752 85.708 36.4C85.7306 36.8592 85.661 37.3183 85.5033 37.7502C85.3456 38.1821 85.103 38.578 84.7898 38.9146C84.4767 39.2513 84.0993 39.5218 83.6799 39.7103C83.2606 39.8987 82.8077 40.0013 82.348 40.012ZM66.836 32.284V34.804H72.884C72.7892 35.9909 72.2958 37.1109 71.484 37.982C70.8774 38.6001 70.1477 39.084 69.3422 39.4023C68.5367 39.7206 67.6734 39.8663 66.808 39.83C65.0258 39.83 63.3165 39.122 62.0563 37.8617C60.796 36.6015 60.088 34.8922 60.088 33.11C60.088 31.3277 60.796 29.6185 62.0563 28.3582C63.3165 27.098 65.0258 26.39 66.808 26.39C68.5167 26.3646 70.1665 27.0134 71.4 28.196L73.178 26.418C72.3436 25.5927 71.3529 24.9422 70.2639 24.5047C69.1749 24.0672 68.0095 23.8514 66.836 23.87C65.5914 23.8215 64.3499 24.0249 63.1857 24.4677C62.0216 24.9106 60.9588 25.584 60.0611 26.4474C59.1634 27.3108 58.4492 28.3466 57.9614 29.4927C57.4736 30.6387 57.2222 31.8714 57.2222 33.117C57.2222 34.3625 57.4736 35.5953 57.9614 36.7413C58.4492 37.8873 59.1634 38.9231 60.0611 39.7866C60.9588 40.65 62.0216 41.3233 63.1857 41.7662C64.3499 42.2091 65.5914 42.4124 66.836 42.364C68.0336 42.4118 69.2278 42.2058 70.3401 41.7594C71.4524 41.313 72.4577 40.6364 73.29 39.774C74.7602 38.159 75.5436 36.0348 75.474 33.852C75.4791 33.3266 75.4369 32.8018 75.348 32.284H66.836ZM130.27 34.244C129.905 33.1698 129.222 32.2319 128.312 31.5544C127.402 30.8769 126.308 30.4917 125.174 30.45C124.408 30.4485 123.65 30.6041 122.947 30.9071C122.244 31.2102 121.61 31.6543 121.085 32.2119C120.56 32.7696 120.155 33.429 119.895 34.1493C119.636 34.8697 119.526 35.6357 119.574 36.4C119.562 37.678 119.964 38.9255 120.719 39.9563C121.475 40.9872 122.544 41.7459 123.766 42.1192C124.988 42.4925 126.299 42.4604 127.501 42.0276C128.704 41.5948 129.734 40.7846 130.438 39.718L128.408 38.318C128.105 38.8224 127.676 39.2389 127.163 39.5262C126.65 39.8135 126.07 39.9617 125.482 39.956C124.875 39.981 124.275 39.8219 123.76 39.4996C123.246 39.1773 122.84 38.7068 122.598 38.15L130.564 34.86L130.27 34.244ZM122.15 36.232C122.122 35.7971 122.18 35.361 122.323 34.949C122.465 34.5371 122.688 34.1577 122.979 33.8331C123.269 33.5085 123.622 33.2451 124.016 33.0584C124.41 32.8718 124.837 32.7655 125.272 32.746C125.723 32.7184 126.172 32.8246 126.563 33.0513C126.954 33.2779 127.27 33.6149 127.47 34.02L122.15 36.232ZM115.682 42H118.3V24.5H115.682V42ZM111.398 31.78H111.3C110.909 31.3346 110.426 30.9789 109.885 30.7373C109.344 30.4956 108.757 30.3738 108.164 30.38C106.634 30.4542 105.191 31.1142 104.135 32.2232C103.078 33.3322 102.489 34.8052 102.489 36.337C102.489 37.8687 103.078 39.3417 104.135 40.4508C105.191 41.5598 106.634 42.2198 108.164 42.294C108.758 42.3059 109.346 42.1866 109.889 41.9446C110.431 41.7026 110.913 41.3438 111.3 40.894H111.398V41.748C111.398 44.03 110.18 45.248 108.22 45.248C107.565 45.2336 106.93 45.025 106.394 44.6486C105.858 44.2722 105.446 43.745 105.21 43.134L102.942 44.072C103.361 45.1251 104.09 46.0262 105.033 46.6562C105.975 47.2861 107.087 47.6152 108.22 47.6C111.286 47.6 113.82 45.794 113.82 41.398V30.8H111.398V31.78ZM108.388 40.012C107.471 39.9548 106.61 39.5501 105.98 38.8803C105.351 38.2105 105.001 37.326 105.001 36.407C105.001 35.4879 105.351 34.6034 105.98 33.9337C106.61 33.2639 107.471 32.8592 108.388 32.802C108.836 32.8213 109.276 32.9307 109.681 33.1235C110.087 33.3163 110.449 33.5886 110.747 33.9243C111.045 34.26 111.272 34.6522 111.415 35.0775C111.558 35.5028 111.614 35.9525 111.58 36.4C111.618 36.8489 111.565 37.301 111.423 37.7288C111.282 38.1566 111.055 38.5512 110.757 38.8889C110.458 39.2265 110.095 39.5001 109.688 39.6932C109.28 39.8862 108.838 39.9947 108.388 40.012V40.012ZM142.534 24.5H136.262V42H138.88V35.364H142.534C143.28 35.4176 144.029 35.3169 144.735 35.0682C145.44 34.8195 146.087 34.4281 146.635 33.9185C147.182 33.4088 147.619 32.7918 147.918 32.1059C148.216 31.4201 148.37 30.68 148.37 29.932C148.37 29.1839 148.216 28.4439 147.918 27.758C147.619 27.0721 147.182 26.4551 146.635 25.9455C146.087 25.4358 145.44 25.0445 144.735 24.7958C144.029 24.5471 143.28 24.4464 142.534 24.5V24.5ZM142.534 32.9H138.88V26.936H142.59C142.983 26.936 143.373 27.0135 143.737 27.164C144.1 27.3146 144.43 27.5353 144.709 27.8135C144.987 28.0917 145.207 28.422 145.358 28.7855C145.509 29.149 145.586 29.5385 145.586 29.932C145.586 30.3254 145.509 30.715 145.358 31.0785C145.207 31.442 144.987 31.7723 144.709 32.0505C144.43 32.3287 144.1 32.5494 143.737 32.6999C143.373 32.8505 142.983 32.928 142.59 32.928L142.534 32.9ZM158.69 30.394C157.737 30.3352 156.787 30.5571 155.958 31.0324C155.13 31.5077 154.459 32.2154 154.028 33.068L156.338 34.034C156.571 33.6131 156.922 33.2689 157.347 33.0428C157.771 32.8167 158.253 32.7185 158.732 32.76C159.064 32.7212 159.401 32.7489 159.723 32.8416C160.044 32.9343 160.344 33.0902 160.605 33.3C160.865 33.5098 161.081 33.7694 161.241 34.0637C161.4 34.358 161.499 34.681 161.532 35.014V35.182C160.69 34.7395 159.753 34.5088 158.802 34.51C156.31 34.51 153.762 35.91 153.762 38.458C153.787 38.9996 153.92 39.5307 154.154 40.0197C154.388 40.5088 154.718 40.9459 155.124 41.305C155.53 41.6642 156.004 41.938 156.518 42.1103C157.032 42.2826 157.576 42.3498 158.116 42.308C158.773 42.3443 159.428 42.2053 160.013 41.9052C160.599 41.605 161.094 41.1546 161.448 40.6H161.532V42H164.052V35.266C164.052 32.2 161.728 30.422 158.746 30.422L158.69 30.394ZM158.368 39.984C157.514 39.984 156.324 39.55 156.324 38.5C156.324 37.1 157.808 36.624 159.124 36.624C159.956 36.6035 160.778 36.8065 161.504 37.212C161.416 37.9723 161.056 38.6749 160.489 39.1898C159.923 39.7046 159.189 39.9967 158.424 40.012L158.368 39.984ZM173.236 30.8L170.24 38.388H170.156L167.048 30.8H164.248L168.91 41.412L166.25 47.306H168.98L176.148 30.8H173.236ZM149.716 42H152.32V24.5H149.716V42Z" fill="white"/>
<path d="M14.6162 10.5559C14.1548 11.1014 13.9194 11.8026 13.9582 12.5159V43.484C13.9105 44.1985 14.147 44.9029 14.6162 45.4439L14.7142 45.556L32.0602 28.2099V27.7899L14.7142 10.4579L14.6162 10.5559Z" fill="url(#paint0_linear_1111_1545)"/>
<path d="M37.7998 33.9919L32.0598 28.2099V27.7899L37.7998 22.0079L37.9258 22.0919L44.7998 25.9839C46.7598 27.0899 46.7598 28.9099 44.7998 30.0299L37.9538 33.9219L37.7998 33.9919Z" fill="url(#paint1_linear_1111_1545)"/>
<path d="M37.968 33.908L32.06 28L14.616 45.444C15.0116 45.7961 15.5179 45.9987 16.0473 46.0166C16.5766 46.0345 17.0955 45.8666 17.514 45.542L37.968 33.908" fill="url(#paint2_linear_1111_1545)"/>
<path d="M37.968 22.0919L17.514 10.4719C17.0982 10.1428 16.5797 9.97081 16.0497 9.98618C15.5196 10.0015 15.012 10.2033 14.616 10.5559L32.06 27.9999L37.968 22.0919Z" fill="url(#paint3_linear_1111_1545)"/>
<path opacity="0.2" d="M37.8 33.782L17.514 45.332C17.1107 45.6363 16.6192 45.801 16.114 45.801C15.6087 45.801 15.1172 45.6363 14.714 45.332V45.332L14.616 45.43L14.714 45.542C15.1172 45.8463 15.6087 46.011 16.114 46.011C16.6192 46.011 17.1107 45.8463 17.514 45.542L37.968 33.908L37.8 33.782Z" fill="black"/>
<path opacity="0.12" d="M14.6157 45.248C14.166 44.6928 13.9457 43.9865 13.9997 43.274V43.484C13.9521 44.1986 14.1886 44.903 14.6577 45.444L14.7557 45.346L14.6157 45.248Z" fill="black"/>
<path opacity="0.12" d="M44.8001 29.82L37.8 33.782L37.926 33.908L44.8001 30.016C45.2058 29.8444 45.5578 29.5666 45.819 29.2118C46.0801 28.8571 46.2408 28.4384 46.2841 28C46.1965 28.3984 46.0166 28.7707 45.7589 29.0868C45.5011 29.4029 45.1727 29.6541 44.8001 29.82Z" fill="black"/>
<path opacity="0.25" d="M17.514 10.6679L44.8 26.1799C45.1726 26.3459 45.501 26.597 45.7588 26.9132C46.0166 27.2293 46.1965 27.6016 46.284 27.9999C46.2408 27.5615 46.0801 27.1429 45.8189 26.7881C45.5578 26.4333 45.2058 26.1555 44.8 25.9839L17.514 10.4719C15.568 9.35194 13.958 10.2759 13.958 12.5159V12.7259C14 10.4859 15.568 9.56195 17.514 10.6679Z" fill="white"/>
<path d="M61.1661 18.2H60.0881V10.836H57.7361V9.79999H63.5181V10.836H61.1661V18.2Z" fill="white" stroke="white" stroke-width="0.2" stroke-miterlimit="10"/>
<path d="M64.8762 18.2V9.79999H65.9542V18.2H64.8762Z" fill="white" stroke="white" stroke-width="0.2" stroke-miterlimit="10"/>
<path d="M67.8721 18.2V9.79999H68.9501V17.164H72.5901V18.2H67.8721Z" fill="white" stroke="white" stroke-width="0.2" stroke-miterlimit="10"/>
<path d="M81.858 14.336C81.8804 14.8482 81.8004 15.3597 81.6224 15.8405C81.4445 16.3213 81.1724 16.7618 80.822 17.136C80.4216 17.547 79.9392 17.8691 79.4061 18.0813C78.8731 18.2936 78.3013 18.3913 77.728 18.368C77.0757 18.3719 76.4307 18.2302 75.8402 17.9531C75.2496 17.676 74.7284 17.2705 74.3145 16.7663C73.9006 16.2621 73.6045 15.6718 73.4479 15.0386C73.2912 14.4053 73.2778 13.7451 73.4089 13.1061C73.5399 12.467 73.8119 11.8653 74.2051 11.3448C74.5983 10.8243 75.1027 10.3981 75.6816 10.0974C76.2605 9.7967 76.8992 9.62904 77.5512 9.60665C78.2031 9.58426 78.8518 9.70771 79.45 9.96799C79.9568 10.1719 80.4079 10.4934 80.766 10.906L80.024 11.648C79.746 11.3131 79.3937 11.0476 78.9951 10.8726C78.5966 10.6976 78.1627 10.618 77.728 10.64C77.1792 10.6438 76.6397 10.7819 76.1567 11.0424C75.6736 11.3028 75.2617 11.6776 74.957 12.134C74.6522 12.5903 74.4639 13.1144 74.4084 13.6604C74.353 14.2064 74.4321 14.7576 74.6389 15.2659C74.8457 15.7743 75.1738 16.2242 75.5946 16.5765C76.0154 16.9287 76.5161 17.1725 77.0529 17.2865C77.5897 17.4006 78.1463 17.3814 78.674 17.2307C79.2017 17.08 79.6844 16.8023 80.08 16.422C80.5129 15.9565 80.7618 15.3494 80.78 14.714H77.728V13.706H81.802C81.8403 13.9138 81.859 14.1247 81.858 14.336V14.336Z" fill="white" stroke="white" stroke-width="0.2" stroke-miterlimit="10"/>
<path d="M85.2041 18.382C84.6392 18.3977 84.086 18.2199 83.6361 17.878C83.1974 17.5147 82.88 17.0263 82.7261 16.478L83.7201 16.072C83.768 16.4419 83.9497 16.7814 84.2308 17.0264C84.512 17.2715 84.8731 17.4051 85.2461 17.402C85.4646 17.4169 85.6836 17.3803 85.8854 17.2952C86.0872 17.2101 86.2662 17.0789 86.4081 16.912C86.6926 16.534 86.8362 16.0686 86.8141 15.596V9.79999H87.8921V15.526C87.9187 15.9114 87.8653 16.2983 87.7352 16.6621C87.6051 17.0259 87.4011 17.3588 87.1361 17.64C86.8819 17.8891 86.5793 18.0835 86.247 18.2112C85.9147 18.3388 85.5597 18.3969 85.2041 18.382Z" fill="white" stroke="white" stroke-width="0.2" stroke-miterlimit="10"/>
<path d="M94.5842 10.836H90.7482V13.496H94.2062V14.504H90.7482V17.164H94.5842V18.2H89.6702V9.79999H94.5842V10.836Z" fill="white" stroke="white" stroke-width="0.2" stroke-miterlimit="10"/>
<path d="M96.2639 18.2V9.79999H97.5799L101.668 16.338V14.714V9.79999H102.746V18.2H101.612L97.4119 11.354V12.964V18.2H96.2639Z" fill="white" stroke="white" stroke-width="0.2" stroke-miterlimit="10"/>
<path d="M112.63 14.3359C112.653 14.8481 112.573 15.3596 112.395 15.8404C112.217 16.3213 111.945 16.7617 111.594 17.1359C111.194 17.5469 110.711 17.869 110.178 18.0813C109.645 18.2935 109.073 18.3912 108.5 18.3679C107.635 18.3585 106.792 18.0947 106.075 17.6095C105.359 17.1243 104.801 16.4391 104.471 15.6392C104.142 14.8393 104.054 13.9601 104.221 13.111C104.387 12.2619 104.799 11.4804 105.406 10.8639C106.03 10.2545 106.82 9.84296 107.677 9.68105C108.534 9.51914 109.419 9.61408 110.222 9.95393C110.729 10.1578 111.18 10.4793 111.538 10.8919L110.796 11.6339C110.518 11.299 110.166 11.0335 109.767 10.8585C109.369 10.6836 108.935 10.6039 108.5 10.6259C107.951 10.6297 107.412 10.7679 106.929 11.0283C106.446 11.2887 106.034 11.6635 105.729 12.1199C105.424 12.5763 105.236 13.1004 105.181 13.6463C105.125 14.1923 105.204 14.7436 105.411 15.2519C105.618 15.7602 105.946 16.2102 106.367 16.5624C106.788 16.9146 107.288 17.1584 107.825 17.2725C108.362 17.3865 108.919 17.3674 109.446 17.2167C109.974 17.0659 110.457 16.7883 110.852 16.4079C111.28 15.9391 111.528 15.334 111.552 14.6999H108.5V13.6919H112.574C112.613 13.9043 112.632 14.12 112.63 14.3359V14.3359Z" fill="white" stroke="white" stroke-width="0.2" stroke-miterlimit="10"/>
<path d="M119.084 10.836H115.262V13.496H118.706V14.504H115.262V17.164H119.084V18.2H114.184V9.79999H119.084V10.836Z" fill="white" stroke="white" stroke-width="0.2" stroke-miterlimit="10"/>
<path d="M120.778 18.2V9.79999H121.8V17.164H125.426V18.2H120.778Z" fill="white" stroke="white" stroke-width="0.2" stroke-miterlimit="10"/>
<path d="M126.854 18.2V9.79999H127.932V18.2H126.854Z" fill="white" stroke="white" stroke-width="0.2" stroke-miterlimit="10"/>
<path d="M137.816 14.336C137.838 14.8482 137.758 15.3597 137.58 15.8405C137.403 16.3213 137.13 16.7618 136.78 17.136C136.38 17.547 135.897 17.8691 135.364 18.0813C134.831 18.2936 134.259 18.3913 133.686 18.368C133.034 18.3719 132.389 18.2302 131.798 17.9531C131.208 17.676 130.686 17.2705 130.273 16.7663C129.859 16.2621 129.563 15.6718 129.406 15.0386C129.249 14.4053 129.236 13.7451 129.367 13.1061C129.498 12.467 129.77 11.8653 130.163 11.3448C130.556 10.8243 131.061 10.3981 131.64 10.0974C132.219 9.7967 132.857 9.62904 133.509 9.60665C134.161 9.58426 134.81 9.70771 135.408 9.96799C135.915 10.1719 136.366 10.4934 136.724 10.906L135.982 11.648C135.704 11.3131 135.352 11.0476 134.953 10.8726C134.555 10.6976 134.121 10.618 133.686 10.64C133.137 10.6438 132.598 10.7819 132.115 11.0424C131.632 11.3028 131.22 11.6776 130.915 12.134C130.61 12.5903 130.422 13.1144 130.366 13.6604C130.311 14.2064 130.39 14.7576 130.597 15.2659C130.804 15.7743 131.132 16.2242 131.553 16.5765C131.973 16.9287 132.474 17.1725 133.011 17.2865C133.548 17.4006 134.104 17.3814 134.632 17.2307C135.16 17.08 135.642 16.8023 136.038 16.422C136.471 15.9565 136.72 15.3494 136.738 14.714H133.686V13.706H137.76C137.798 13.9138 137.817 14.1247 137.816 14.336V14.336Z" fill="white" stroke="white" stroke-width="0.2" stroke-miterlimit="10"/>
<path d="M143.262 18.2001H142.184V9.80007H144.984C145.67 9.7883 146.333 10.0445 146.832 10.5141C147.079 10.741 147.277 11.0168 147.412 11.3241C147.547 11.6314 147.617 11.9634 147.617 12.2991C147.617 12.6348 147.547 12.9668 147.412 13.2741C147.277 13.5813 147.079 13.8572 146.832 14.0841C146.333 14.5537 145.67 14.8098 144.984 14.7981H143.206L143.262 18.2001ZM143.262 13.7621H145.068C145.272 13.7714 145.475 13.7362 145.664 13.6588C145.852 13.5814 146.022 13.4638 146.16 13.3141C146.421 13.0406 146.567 12.6771 146.567 12.2991C146.567 11.921 146.421 11.5575 146.16 11.2841C146.022 11.1344 145.852 11.0167 145.664 10.9394C145.475 10.862 145.272 10.8267 145.068 10.8361H143.262V13.7621Z" fill="white" stroke="white" stroke-width="0.2" stroke-miterlimit="10"/>
<path d="M147.504 18.1999L150.5 10.2759C150.372 10.1641 150.267 10.0274 150.193 9.87408C150.119 9.72076 150.077 9.55401 150.069 9.38391C150.061 9.2138 150.088 9.04387 150.148 8.88438C150.207 8.72489 150.299 8.57914 150.416 8.45595C150.649 8.23093 150.96 8.10539 151.284 8.10595C151.446 8.10441 151.606 8.1359 151.756 8.19848C151.905 8.26107 152.04 8.35344 152.152 8.46995C152.266 8.58033 152.357 8.71323 152.417 8.86023C152.477 9.00723 152.506 9.16513 152.502 9.32395C152.506 9.50506 152.469 9.68472 152.394 9.84956C152.319 10.0144 152.207 10.1601 152.068 10.2759L155.064 18.1999H153.874L153.062 15.918H149.52L148.708 18.1999H147.504ZM149.884 14.9099H152.684L151.284 11.13L149.884 14.9099ZM151.284 9.79995C151.347 9.80058 151.409 9.7885 151.467 9.76443C151.524 9.74037 151.577 9.70482 151.62 9.65995C151.664 9.61697 151.698 9.56575 151.722 9.50927C151.746 9.45279 151.758 9.39218 151.758 9.33095C151.758 9.26973 151.746 9.20911 151.722 9.15263C151.698 9.09615 151.664 9.04493 151.62 9.00195C151.577 8.95708 151.524 8.92153 151.467 8.89746C151.409 8.8734 151.347 8.86132 151.284 8.86195C151.223 8.8597 151.163 8.87111 151.107 8.89534C151.052 8.91957 151.002 8.956 150.962 9.00195C150.918 9.04343 150.883 9.09333 150.859 9.14866C150.835 9.204 150.823 9.26362 150.822 9.32395C150.823 9.44496 150.862 9.56256 150.934 9.65995C151.017 9.7417 151.126 9.79133 151.242 9.79995H151.284Z" fill="white" stroke="white" stroke-width="0.2" stroke-miterlimit="10"/>
<defs>
<linearGradient id="paint0_linear_1111_1545" x1="30.5202" y1="12.1939" x2="7.02817" y2="35.686" gradientUnits="userSpaceOnUse">
<stop stop-color="#00A0FF"/>
<stop offset="0.01" stop-color="#00A1FF"/>
<stop offset="0.26" stop-color="#00BEFF"/>
<stop offset="0.51" stop-color="#00D2FF"/>
<stop offset="0.76" stop-color="#00DFFF"/>
<stop offset="1" stop-color="#00E3FF"/>
</linearGradient>
<linearGradient id="paint1_linear_1111_1545" x1="47.3618" y1="27.9999" x2="13.4958" y2="27.9999" gradientUnits="userSpaceOnUse">
<stop stop-color="#FFE000"/>
<stop offset="0.41" stop-color="#FFBD00"/>
<stop offset="0.78" stop-color="#FFA500"/>
<stop offset="1" stop-color="#FF9C00"/>
</linearGradient>
<linearGradient id="paint2_linear_1111_1545" x1="34.762" y1="31.22" x2="2.89797" y2="63.07" gradientUnits="userSpaceOnUse">
<stop stop-color="#FF3A44"/>
<stop offset="1" stop-color="#C31162"/>
</linearGradient>
<linearGradient id="paint3_linear_1111_1545" x1="10.22" y1="0.251934" x2="24.444" y2="14.4759" gradientUnits="userSpaceOnUse">
<stop stop-color="#32A071"/>
<stop offset="0.07" stop-color="#2DA771"/>
<stop offset="0.48" stop-color="#15CF74"/>
<stop offset="0.8" stop-color="#06E775"/>
<stop offset="1" stop-color="#00F076"/>
</linearGradient>
</defs>
</svg>
