<svg width="168" height="56" viewBox="0 0 168 56" fill="none" xmlns="http://www.w3.org/2000/svg">
<g clip-path="url(#clip0_1111_1614)">
<path d="M154.189 5.99297e-05H13.3486C12.8352 5.99297e-05 12.328 5.99298e-05 11.8159 0.00285993C11.3873 0.00565993 10.9621 0.0137939 10.5294 0.0206399C9.58932 0.0317025 8.65145 0.114407 7.72394 0.268034C6.79773 0.425006 5.90054 0.720942 5.06271 1.14583C4.2259 1.57432 3.46128 2.13109 2.7966 2.79596C2.12842 3.45895 1.57145 4.22528 1.14709 5.06548C0.72156 5.90401 0.426497 6.80257 0.27209 7.73013C0.116215 8.65652 0.0323377 9.59359 0.02121 10.5329C0.008218 10.9622 0.006846 11.3928 0 11.8221V44.1821C0.006846 44.6168 0.008218 45.0379 0.02121 45.4728C0.0323411 46.4121 0.116219 47.3491 0.27209 48.2754C0.42607 49.2035 0.721151 50.1026 1.14709 50.9414C1.57126 51.7789 2.12831 52.5422 2.7966 53.2015C3.45876 53.8693 4.22387 54.4264 5.06271 54.8516C5.90054 55.2777 6.79763 55.5754 7.72394 55.7348C8.65161 55.8872 9.58938 55.9699 10.5294 55.9823C10.9621 55.9918 11.3873 55.9973 11.8159 55.9973C12.3279 56.0001 12.8352 56.0001 13.3486 56.0001H154.189C154.692 56.0001 155.203 56.0001 155.706 55.9973C156.133 55.9973 156.57 55.9918 156.997 55.9823C157.935 55.9706 158.871 55.8878 159.797 55.7348C160.726 55.5742 161.627 55.2766 162.468 54.8516C163.306 54.4262 164.071 53.8691 164.732 53.2015C165.399 52.5396 165.957 51.7769 166.387 50.9414C166.809 50.102 167.102 49.203 167.253 48.2754C167.41 47.349 167.496 46.4121 167.513 45.4728C167.519 45.0379 167.519 44.6168 167.519 44.1821C167.53 43.6735 167.53 43.1677 167.53 42.6508V13.3506C167.53 12.8379 167.53 12.3294 167.519 11.8221C167.519 11.3928 167.519 10.9622 167.513 10.5329C167.496 9.59345 167.41 8.65659 167.253 7.73008C167.101 6.80305 166.809 5.90456 166.387 5.06543C165.523 3.38133 164.152 2.0105 162.468 1.14571C161.627 0.721854 160.726 0.425997 159.797 0.267908C158.871 0.113604 157.935 0.0308708 156.997 0.0204439C156.57 0.0136119 156.133 0.00540793 155.706 0.00267793C155.203 -0.00012207 154.692 -0.00012207 154.189 -0.00012207V5.99297e-05Z" fill="#A6A6A6"/>
<path d="M11.8227 54.775C11.3962 54.775 10.9799 54.7696 10.5567 54.7601C9.68 54.7486 8.80535 54.6723 7.93991 54.5317C7.13294 54.3927 6.3512 54.1342 5.62048 53.7647C4.89646 53.3982 4.23609 52.9176 3.66468 52.3414C3.08499 51.772 2.60238 51.1116 2.23596 50.3863C1.86551 49.6563 1.60913 48.8739 1.47576 48.0662C1.33174 47.1984 1.25381 46.3209 1.24266 45.4412C1.23379 45.146 1.22217 44.1629 1.22217 44.1629V11.8221C1.22217 11.8221 1.23454 10.8541 1.24273 10.5698C1.25341 9.69151 1.33088 8.81535 1.47448 7.94886C1.60809 7.13899 1.86467 6.35428 2.23532 5.62192C2.60039 4.89716 3.08032 4.23624 3.65652 3.66479C4.23206 3.08791 4.89454 2.60488 5.61979 2.23333C6.34883 1.86497 7.1291 1.60826 7.93444 1.47181C8.80272 1.32981 9.68041 1.25303 10.5602 1.24213L11.8234 1.22504H155.699L156.978 1.24282C157.849 1.25318 158.719 1.32927 159.579 1.47044C160.393 1.6086 161.181 1.8671 161.919 2.23743C163.372 2.98622 164.554 4.17087 165.3 5.62533C165.664 6.35265 165.917 7.13095 166.049 7.93382C166.194 8.80742 166.276 9.69047 166.292 10.5759C166.296 10.9724 166.296 11.3983 166.296 11.8221C166.307 12.3471 166.307 12.8468 166.307 13.3506V42.6508C166.307 43.1594 166.307 43.6557 166.296 44.156C166.296 44.6113 166.296 45.0284 166.291 45.4576C166.275 46.3273 166.195 47.1945 166.052 48.0525C165.921 48.866 165.666 49.6546 165.296 50.3905C164.927 51.1079 164.447 51.7626 163.874 52.3305C163.302 52.9098 162.64 53.3932 161.915 53.762C161.179 54.1344 160.392 54.3939 159.579 54.5317C158.714 54.6731 157.839 54.7494 156.963 54.7601C156.553 54.7696 156.123 54.775 155.706 54.775L154.189 54.7778L11.8227 54.775Z" fill="black"/>
<path d="M34.6764 28.4209C34.6915 27.2524 35.0019 26.1067 35.5787 25.0903C36.1556 24.074 36.9801 23.2201 37.9756 22.6081C37.3432 21.7048 36.5089 20.9615 35.5389 20.4371C34.569 19.9128 33.4901 19.6218 32.388 19.5873C30.0371 19.3405 27.7579 20.9941 26.5599 20.9941C25.3388 20.9941 23.4943 19.6118 21.508 19.6527C20.2233 19.6942 18.9712 20.0678 17.8738 20.7371C16.7764 21.4063 15.871 22.3485 15.246 23.4717C12.5384 28.1595 14.558 35.0489 17.1516 38.8382C18.4493 40.6937 19.9659 42.7663 21.9503 42.6928C23.8922 42.6123 24.6175 41.4545 26.9615 41.4545C29.2837 41.4545 29.9642 42.6928 31.9889 42.6461C34.0726 42.6123 35.3855 40.7823 36.6376 38.9093C37.57 37.5872 38.2874 36.126 38.7634 34.5798C37.5528 34.0678 36.5197 33.2107 35.7929 32.1155C35.0662 31.0203 34.6779 29.7354 34.6764 28.4209V28.4209Z" fill="white"/>
<path d="M30.8521 17.0952C31.9882 15.7314 32.5479 13.9783 32.4124 12.2084C30.6766 12.3907 29.0733 13.2203 27.9218 14.5318C27.3588 15.1726 26.9276 15.918 26.6528 16.7254C26.3781 17.5329 26.2652 18.3866 26.3206 19.2378C27.1888 19.2467 28.0477 19.0585 28.8326 18.6874C29.6175 18.3163 30.308 17.7719 30.8521 17.0952Z" fill="white"/>
<path d="M59.2232 37.9955H52.5965L51.0051 42.6945H48.1982L54.475 25.3093H57.3912L63.668 42.6945H60.8133L59.2232 37.9955ZM53.2828 35.8271H58.5356L55.9462 28.201H55.8737L53.2828 35.8271Z" fill="white"/>
<path d="M77.2236 36.3576C77.2236 40.2965 75.1154 42.8272 71.934 42.8272C71.1281 42.8693 70.3266 42.6837 69.6213 42.2915C68.9159 41.8993 68.3353 41.3164 67.9459 40.6096H67.8857V46.8877H65.2839V30.0194H67.8023V32.1276H67.8502C68.2575 31.4241 68.8479 30.8442 69.5586 30.4497C70.2693 30.0551 71.0737 29.8605 71.8861 29.8867C75.1031 29.8868 77.2236 32.4297 77.2236 36.3576ZM74.5494 36.3576C74.5494 33.7914 73.2232 32.1043 71.1998 32.1043C69.2119 32.1043 67.8748 33.827 67.8748 36.3576C67.8748 38.9116 69.2119 40.6219 71.1998 40.6219C73.2232 40.6219 74.5494 38.9471 74.5494 36.3576Z" fill="white"/>
<path d="M91.1743 36.3576C91.1743 40.2965 89.0661 42.8272 85.8847 42.8272C85.0787 42.8693 84.2772 42.6837 83.5719 42.2915C82.8666 41.8993 82.286 41.3164 81.8966 40.6096H81.8364V46.8877H79.2346V30.0193H81.753V32.1275H81.8008C82.2082 31.4241 82.7986 30.8442 83.5093 30.4497C84.2199 30.0551 85.0243 29.8605 85.8368 29.8867C89.0538 29.8867 91.1743 32.4297 91.1743 36.3576ZM88.5001 36.3576C88.5001 33.7914 87.1739 32.1043 85.1505 32.1043C83.1626 32.1043 81.8255 33.827 81.8255 36.3576C81.8255 38.9115 83.1626 40.6219 85.1505 40.6219C87.1739 40.6219 88.5001 38.9471 88.5001 36.3576H88.5001Z" fill="white"/>
<path d="M100.395 37.8506C100.588 39.5746 102.262 40.7066 104.551 40.7066C106.744 40.7066 108.322 39.5746 108.322 38.0201C108.322 36.6706 107.37 35.8627 105.117 35.3089L102.864 34.7662C99.6715 33.9951 98.1895 32.5021 98.1895 30.0794C98.1895 27.0798 100.804 25.0195 104.515 25.0195C108.189 25.0195 110.707 27.0798 110.792 30.0794H108.166C108.009 28.3445 106.574 27.2972 104.479 27.2972C102.383 27.2972 100.948 28.3568 100.948 29.899C100.948 31.1281 101.864 31.8513 104.105 32.405L106.021 32.8753C109.588 33.7188 111.07 35.1517 111.07 37.6946C111.07 40.9472 108.479 42.9843 104.358 42.9843C100.503 42.9843 97.8996 40.995 97.7314 37.8505L100.395 37.8506Z" fill="white"/>
<path d="M116.685 27.0197V30.0193H119.095V32.0797H116.685V39.0674C116.685 40.1529 117.167 40.6588 118.227 40.6588C118.513 40.6538 118.799 40.6337 119.083 40.5986V42.6466C118.606 42.7356 118.122 42.7759 117.638 42.7669C115.072 42.7669 114.071 41.8031 114.071 39.3449V32.0797H112.228V30.0193H114.071V27.0197H116.685Z" fill="white"/>
<path d="M120.491 36.3577C120.491 32.3696 122.84 29.8635 126.502 29.8635C130.177 29.8635 132.515 32.3695 132.515 36.3577C132.515 40.3567 130.19 42.8518 126.502 42.8518C122.816 42.8518 120.491 40.3567 120.491 36.3577ZM129.864 36.3577C129.864 33.6219 128.611 32.0073 126.502 32.0073C124.394 32.0073 123.142 33.6342 123.142 36.3577C123.142 39.1043 124.394 40.7067 126.502 40.7067C128.611 40.7067 129.864 39.1043 129.864 36.3577H129.864Z" fill="white"/>
<path d="M134.661 30.0194H137.142V32.1768H137.202C137.37 31.503 137.765 30.9075 138.32 30.4905C138.875 30.0734 139.557 29.8602 140.251 29.8867C140.551 29.8857 140.85 29.9182 141.143 29.9838V32.4174C140.764 32.3017 140.369 32.2486 139.974 32.2602C139.596 32.2448 139.219 32.3115 138.869 32.4555C138.519 32.5996 138.205 32.8176 137.947 33.0946C137.69 33.3717 137.495 33.7012 137.377 34.0605C137.259 34.4199 137.22 34.8005 137.262 35.1764V42.6945H134.661L134.661 30.0194Z" fill="white"/>
<path d="M153.138 38.9717C152.788 41.2726 150.547 42.8517 147.68 42.8517C143.993 42.8517 141.704 40.3812 141.704 36.4178C141.704 32.442 144.005 29.8635 147.571 29.8635C151.078 29.8635 153.283 32.2724 153.283 36.1156V37.007H144.331V37.1642C144.289 37.6307 144.348 38.1007 144.502 38.5428C144.656 38.985 144.903 39.3893 145.225 39.7289C145.548 40.0684 145.939 40.3355 146.373 40.5123C146.806 40.6892 147.273 40.7717 147.74 40.7545C148.355 40.8121 148.972 40.6697 149.5 40.3485C150.027 40.0272 150.437 39.5444 150.668 38.9717L153.138 38.9717ZM144.343 35.1887H150.68C150.703 34.7692 150.64 34.3495 150.493 33.9558C150.347 33.5621 150.12 33.2029 149.828 32.9009C149.536 32.5988 149.185 32.3603 148.797 32.2004C148.408 32.0405 147.991 31.9626 147.571 31.9717C147.147 31.9691 146.727 32.0505 146.335 32.2112C145.943 32.3718 145.587 32.6085 145.287 32.9076C144.987 33.2067 144.749 33.5622 144.587 33.9538C144.425 34.3453 144.342 34.765 144.343 35.1887V35.1887Z" fill="white"/>
<path d="M55.1496 20.5769H49.9392V12.2234H51.2367V19.384H55.1496V20.5769Z" fill="white"/>
<path d="M56.4607 18.7941C56.4607 17.6593 57.3056 17.0051 58.8054 16.9121L60.513 16.8137V16.2696C60.513 15.6037 60.0728 15.2278 59.2224 15.2278C58.5279 15.2278 58.0466 15.4828 57.9085 15.9285H56.7041C56.8312 14.8456 57.8498 14.1511 59.2798 14.1511C60.8603 14.1511 61.7517 14.9379 61.7517 16.2696V20.5769H60.554V19.691H60.4556C60.2558 20.0088 59.9753 20.2678 59.6426 20.4417C59.3099 20.6156 58.937 20.6981 58.5621 20.6808C58.2974 20.7083 58.0299 20.6801 57.7769 20.5979C57.5238 20.5157 57.2908 20.3814 57.0928 20.2036C56.8948 20.0259 56.7363 19.8086 56.6274 19.5658C56.5185 19.3231 56.4617 19.0602 56.4607 18.7941V18.7941ZM60.513 18.2554V17.7284L58.9735 17.8268C58.1054 17.8849 57.7116 18.1802 57.7116 18.736C57.7116 19.3033 58.2038 19.6335 58.8806 19.6335C59.0789 19.6536 59.2792 19.6336 59.4696 19.5747C59.6601 19.5157 59.8367 19.4191 59.989 19.2905C60.1413 19.162 60.2662 19.0041 60.3562 18.8262C60.4462 18.6484 60.4996 18.4543 60.513 18.2554V18.2554Z" fill="white"/>
<path d="M66.0037 14.1511C67.4214 14.1511 68.3484 14.8108 68.4701 15.9223H67.2765C67.1617 15.4595 66.7091 15.1642 66.0037 15.1642C65.3091 15.1642 64.7815 15.4937 64.7815 15.9859C64.7815 16.3625 65.1 16.5998 65.7836 16.7563L66.8308 16.999C68.0298 17.2772 68.5917 17.7926 68.5917 18.7189C68.5917 19.9056 67.4857 20.6986 65.9804 20.6986C64.4806 20.6986 63.5031 20.0211 63.3923 18.9042H64.6378C64.7452 19.17 64.9387 19.3921 65.1874 19.5348C65.4361 19.6775 65.7255 19.7325 66.0091 19.691C66.7843 19.691 67.3353 19.3438 67.3353 18.8399C67.3353 18.4639 67.04 18.2205 66.4084 18.0702L65.3091 17.8152C64.1101 17.5315 63.555 16.9935 63.555 16.0556C63.555 14.9379 64.579 14.1511 66.0037 14.1511Z" fill="white"/>
<path d="M71.9057 12.7032V14.3015H73.2715V15.3494H71.9057V18.591C71.9057 19.2514 72.1778 19.5406 72.7971 19.5406C72.9557 19.54 73.1141 19.5305 73.2715 19.5118V20.5482C73.0481 20.5882 72.8217 20.6095 72.5948 20.6117C71.2112 20.6117 70.6602 20.125 70.6602 18.9096V15.3494H69.6594V14.3014H70.6602V12.7032H71.9057Z" fill="white"/>
<path d="M78.3331 14.2728H79.5307V15.2743H79.6236C79.7814 14.9146 80.0474 14.613 80.3846 14.4117C80.7218 14.2104 81.1134 14.1193 81.5049 14.1511C81.8116 14.128 82.1196 14.1743 82.4061 14.2864C82.6925 14.3986 82.95 14.5737 83.1596 14.7989C83.3692 15.0241 83.5254 15.2935 83.6166 15.5873C83.7079 15.881 83.7319 16.1915 83.6869 16.4958V20.5768H82.4428V16.8082C82.4428 15.7952 82.0025 15.2913 81.0824 15.2913C80.8742 15.2816 80.6663 15.3171 80.473 15.3953C80.2797 15.4734 80.1056 15.5924 79.9626 15.7442C79.8197 15.8959 79.7112 16.0768 79.6447 16.2744C79.5781 16.472 79.5551 16.6816 79.5771 16.8889V20.5769H78.333L78.3331 14.2728Z" fill="white"/>
<path d="M90.9426 18.8747C90.7736 19.4509 90.4074 19.9493 89.908 20.2827C89.4086 20.6161 88.8079 20.7633 88.211 20.6986C87.7956 20.7095 87.3829 20.63 87.0014 20.4654C86.6199 20.3009 86.2788 20.0553 86.0017 19.7457C85.7246 19.4361 85.5182 19.0699 85.3969 18.6726C85.2755 18.2752 85.2421 17.8562 85.2989 17.4447C85.2436 17.0318 85.2776 16.6119 85.3987 16.2134C85.5198 15.8148 85.7251 15.447 86.0007 15.1347C86.2763 14.8224 86.6158 14.5729 86.9962 14.4032C87.3766 14.2335 87.789 14.1476 88.2055 14.1511C89.9596 14.1511 91.0185 15.3495 91.0185 17.3291V17.7632H86.5662V17.833C86.5467 18.0643 86.5758 18.2972 86.6516 18.5166C86.7274 18.7361 86.8481 18.9373 87.0062 19.1073C87.1643 19.2773 87.3562 19.4125 87.5695 19.504C87.7828 19.5956 88.013 19.6415 88.2451 19.639C88.5427 19.6747 88.8442 19.6211 89.1113 19.485C89.3784 19.3489 89.5989 19.1365 89.7449 18.8747L90.9426 18.8747ZM86.5662 16.8431H89.7504C89.7661 16.6315 89.7373 16.419 89.666 16.2192C89.5946 16.0194 89.4823 15.8367 89.3362 15.6829C89.19 15.5291 89.0133 15.4076 88.8174 15.3262C88.6215 15.2447 88.4107 15.2051 88.1986 15.21C87.9834 15.2073 87.7699 15.2477 87.5706 15.3288C87.3713 15.4099 87.1902 15.5301 87.0381 15.6823C86.8859 15.8345 86.7658 16.0157 86.6848 16.215C86.6037 16.4144 86.5634 16.6279 86.5662 16.8431V16.8431Z" fill="white"/>
<path d="M92.376 17.4221C92.376 15.4301 93.4 14.1682 94.9928 14.1682C95.3868 14.15 95.7778 14.2444 96.1201 14.4403C96.4624 14.6361 96.742 14.9254 96.926 15.2742H97.0189V11.8118H98.2631V20.5769H97.0709V19.5809H96.9725C96.7742 19.9273 96.4849 20.213 96.136 20.4069C95.787 20.6007 95.3917 20.6955 94.9928 20.6808C93.3891 20.6808 92.376 19.4189 92.376 17.4221ZM93.6612 17.4221C93.6612 18.7592 94.2914 19.5638 95.3456 19.5638C96.3942 19.5638 97.0422 18.7476 97.0422 17.4276C97.0422 16.1137 96.3873 15.2859 95.3456 15.2859C94.2983 15.2859 93.6611 16.0959 93.6611 17.4221H93.6612Z" fill="white"/>
<path d="M104.169 15.3495H103.133V14.3015H104.169V13.6877C104.169 12.4025 104.869 11.87 106.183 11.87C106.408 11.8689 106.633 11.8883 106.855 11.9281V12.9234C106.673 12.8928 106.489 12.8775 106.305 12.8777C105.709 12.8777 105.396 13.1497 105.396 13.7691V14.3016H106.803V15.3495H105.414V20.577H104.169V15.3495Z" fill="white"/>
<path d="M108.387 14.2728H109.585V15.2394H109.678C109.812 14.9038 110.049 14.6194 110.355 14.4269C110.661 14.2345 111.019 14.1439 111.38 14.1682C111.566 14.1657 111.752 14.1831 111.935 14.2201V15.4479C111.707 15.3991 111.474 15.3739 111.241 15.3727C111.035 15.3543 110.829 15.379 110.633 15.4453C110.438 15.5115 110.259 15.6178 110.108 15.7574C109.956 15.897 109.836 16.0667 109.753 16.2557C109.671 16.4447 109.63 16.6487 109.631 16.8548V20.5769H108.387L108.387 14.2728Z" fill="white"/>
<path d="M112.913 18.7941C112.913 17.6593 113.758 17.0051 115.257 16.9121L116.965 16.8137V16.2696C116.965 15.6038 116.525 15.2278 115.674 15.2278C114.98 15.2278 114.499 15.4828 114.36 15.9285H113.156C113.283 14.8456 114.302 14.1511 115.732 14.1511C117.312 14.1511 118.204 14.9379 118.204 16.2696V20.5769H117.006V19.691H116.908C116.708 20.0088 116.427 20.2678 116.094 20.4417C115.762 20.6156 115.389 20.6981 115.014 20.6808C114.749 20.7083 114.482 20.6801 114.229 20.5979C113.976 20.5157 113.743 20.3814 113.545 20.2036C113.347 20.0259 113.188 19.8086 113.079 19.5658C112.97 19.3231 112.914 19.0602 112.913 18.7941ZM116.965 18.2554V17.7284L115.425 17.8268C114.557 17.8849 114.164 18.1802 114.164 18.736C114.164 19.3033 114.656 19.6335 115.333 19.6335C115.531 19.6536 115.731 19.6336 115.922 19.5746C116.112 19.5157 116.289 19.4191 116.441 19.2905C116.593 19.1619 116.718 19.004 116.808 18.8262C116.898 18.6484 116.951 18.4543 116.965 18.2554V18.2554Z" fill="white"/>
</g>
<defs>
<clipPath id="clip0_1111_1614">
<rect width="167.53" height="56" fill="white"/>
</clipPath>
</defs>
</svg>
